<svg xmlns="http://www.w3.org/2000/svg" xmlns:xlink="http://www.w3.org/1999/xlink" width="500" zoomAndPan="magnify" viewBox="0 0 375 374.999991" height="500" preserveAspectRatio="xMidYMid meet" version="1.0"><defs><g/></defs><g fill="#7e9b8d" fill-opacity="1"><g transform="translate(86.069464, 266.621374)"><g><path d="M 233 -82.5 C 238.445312 -82.5 242.285156 -80.515625 244.515625 -76.546875 C 246.742188 -72.585938 248.046875 -68.003906 248.421875 -62.796875 C 248.796875 -57.597656 248.859375 -53.140625 248.609375 -49.421875 C 248.609375 -40.753906 247.117188 -32.457031 244.140625 -24.53125 C 241.171875 -16.601562 236.460938 -10.160156 230.015625 -5.203125 C 223.578125 -0.242188 214.910156 2.234375 204.015625 2.234375 C 195.835938 2.234375 187.96875 -0.488281 180.40625 -5.9375 C 172.851562 -11.394531 165.609375 -18.457031 158.671875 -27.125 C 151.734375 -35.800781 144.859375 -44.96875 138.046875 -54.625 C 131.234375 -64.289062 124.359375 -73.519531 117.421875 -82.3125 C 110.492188 -91.101562 103.375 -98.347656 96.0625 -104.046875 C 88.75 -109.742188 81.128906 -112.71875 73.203125 -112.96875 C 70.972656 -112.71875 69.488281 -113.394531 68.75 -115 C 68.007812 -116.613281 68.007812 -118.285156 68.75 -120.015625 C 69.488281 -121.753906 70.847656 -122.503906 72.828125 -122.265625 C 75.554688 -122.015625 77.046875 -121.765625 77.296875 -121.515625 C 77.546875 -121.265625 79.03125 -121.140625 81.75 -121.140625 C 93.144531 -121.140625 104.289062 -123.738281 115.1875 -128.9375 C 126.09375 -134.144531 136.191406 -141.019531 145.484375 -149.5625 C 154.773438 -158.113281 162.828125 -167.65625 169.640625 -178.1875 C 176.453125 -188.71875 181.46875 -199.304688 184.6875 -209.953125 C 185.925781 -215.410156 185.738281 -219.316406 184.125 -221.671875 C 182.519531 -224.023438 180.046875 -225.570312 176.703125 -226.3125 C 173.359375 -227.050781 169.578125 -227.796875 165.359375 -228.546875 C 163.628906 -229.035156 162.828125 -230.207031 162.953125 -232.0625 C 163.078125 -233.925781 164.003906 -234.859375 165.734375 -234.859375 L 235.59375 -234.859375 C 237.582031 -234.859375 238.632812 -233.925781 238.75 -232.0625 C 238.875 -230.207031 237.945312 -229.035156 235.96875 -228.546875 C 229.78125 -227.546875 224.765625 -226.117188 220.921875 -224.265625 C 217.078125 -222.410156 214.414062 -219.003906 212.9375 -214.046875 L 212.9375 -214.421875 C 209.21875 -199.054688 202.03125 -184.5625 191.375 -170.9375 C 180.726562 -157.3125 168.40625 -145.726562 154.40625 -136.1875 C 140.40625 -126.65625 126.222656 -120.03125 111.859375 -116.3125 C 120.773438 -114.582031 128.882812 -110.0625 136.1875 -102.75 C 143.5 -95.4375 150.375 -87.007812 156.8125 -77.46875 C 163.257812 -67.9375 169.640625 -58.523438 175.953125 -49.234375 C 182.273438 -39.941406 188.90625 -32.195312 195.84375 -26 C 202.78125 -19.8125 210.332031 -16.71875 218.5 -16.71875 C 225.195312 -16.71875 230.273438 -18.820312 233.734375 -23.03125 C 237.203125 -27.25 239.0625 -32.144531 239.3125 -37.71875 C 239.5625 -43.289062 237.828125 -48.0625 234.109375 -52.03125 C 230.640625 -55.988281 227.601562 -58.957031 225 -60.9375 C 222.40625 -62.925781 221.109375 -65.898438 221.109375 -69.859375 C 221.109375 -73.828125 222.40625 -76.925781 225 -79.15625 C 227.601562 -81.382812 230.269531 -82.5 233 -82.5 Z M 84.359375 -7.796875 C 86.335938 -7.554688 87.265625 -6.503906 87.140625 -4.640625 C 87.015625 -2.785156 85.960938 -1.859375 83.984375 -1.859375 L 10.78125 -1.859375 C 9.039062 -1.859375 8.109375 -2.785156 7.984375 -4.640625 C 7.859375 -6.503906 8.664062 -7.554688 10.40625 -7.796875 C 14.613281 -8.546875 18.515625 -9.101562 22.109375 -9.46875 C 25.703125 -9.84375 28.550781 -11.144531 30.65625 -13.375 C 32.757812 -15.601562 33.8125 -19.941406 33.8125 -26.390625 L 33.8125 -209.953125 C 33.8125 -216.648438 32.757812 -221.113281 30.65625 -223.34375 C 28.550781 -225.570312 25.703125 -226.804688 22.109375 -227.046875 C 18.515625 -227.296875 14.613281 -227.796875 10.40625 -228.546875 C 8.664062 -229.035156 7.859375 -230.207031 7.984375 -232.0625 C 8.109375 -233.925781 9.039062 -234.859375 10.78125 -234.859375 L 83.984375 -234.859375 C 85.960938 -234.859375 87.015625 -233.925781 87.140625 -232.0625 C 87.265625 -230.207031 86.335938 -229.035156 84.359375 -228.546875 C 80.390625 -227.796875 76.609375 -227.296875 73.015625 -227.046875 C 69.429688 -226.804688 66.582031 -225.570312 64.46875 -223.34375 C 62.363281 -221.113281 61.3125 -216.648438 61.3125 -209.953125 L 61.3125 -26.390625 C 61.3125 -19.941406 62.363281 -15.601562 64.46875 -13.375 C 66.582031 -11.144531 69.429688 -9.84375 73.015625 -9.46875 C 76.609375 -9.101562 80.390625 -8.546875 84.359375 -7.796875 Z M 84.359375 -7.796875 "/></g></g></g><g fill="#244435" fill-opacity="1"><g transform="translate(13.440863, 301.371742)"><g><path d="M 198.0625 -49.046875 C 198.5625 -50.785156 199.738281 -51.59375 201.59375 -51.46875 C 203.457031 -51.34375 204.390625 -50.414062 204.390625 -48.6875 L 202.53125 -3.71875 C 202.53125 -2.476562 201.660156 -1.859375 199.921875 -1.859375 L 10.78125 -1.859375 C 8.789062 -1.859375 7.796875 -2.785156 7.796875 -4.640625 C 7.796875 -6.503906 8.664062 -7.554688 10.40625 -7.796875 C 14.613281 -8.546875 18.453125 -9.101562 21.921875 -9.46875 C 25.390625 -9.84375 28.175781 -11.144531 30.28125 -13.375 C 32.382812 -15.601562 33.4375 -19.941406 33.4375 -26.390625 L 33.4375 -209.953125 C 33.4375 -216.648438 32.382812 -221.113281 30.28125 -223.34375 C 28.175781 -225.570312 25.390625 -226.804688 21.921875 -227.046875 C 18.453125 -227.296875 14.613281 -227.796875 10.40625 -228.546875 C 8.664062 -229.035156 7.796875 -230.207031 7.796875 -232.0625 C 7.796875 -233.925781 8.789062 -234.859375 10.78125 -234.859375 L 83.984375 -234.859375 C 85.960938 -234.859375 87.015625 -233.925781 87.140625 -232.0625 C 87.265625 -230.207031 86.335938 -229.035156 84.359375 -228.546875 C 80.140625 -227.796875 76.234375 -227.296875 72.640625 -227.046875 C 69.054688 -226.804688 66.207031 -225.570312 64.09375 -223.34375 C 61.988281 -221.113281 60.9375 -216.648438 60.9375 -209.953125 L 60.9375 -25.640625 C 60.9375 -20.191406 62.238281 -16.351562 64.84375 -14.125 C 67.445312 -11.894531 70.726562 -10.53125 74.6875 -10.03125 L 144.5625 -10.03125 C 157.4375 -10.03125 167.40625 -11.578125 174.46875 -14.671875 C 181.53125 -17.773438 186.796875 -22.296875 190.265625 -28.234375 C 193.734375 -34.179688 196.332031 -41.117188 198.0625 -49.046875 Z M 198.0625 -49.046875 "/></g></g></g><g fill="#ffffff" fill-opacity="1"><g transform="translate(229.569496, 296.112422)"><g><path d="M 137.421875 -165.0625 L 139 -137.421875 C 139 -136.367188 138.335938 -135.753906 137.015625 -135.578125 C 135.703125 -135.398438 134.867188 -135.925781 134.515625 -137.15625 C 133.285156 -142.945312 131.441406 -147.507812 128.984375 -150.84375 C 126.535156 -154.175781 122.804688 -156.585938 117.796875 -158.078125 C 112.796875 -159.566406 105.644531 -160.3125 96.34375 -160.3125 L 55.015625 -160.3125 C 51.679688 -160.3125 48.875 -159.609375 46.59375 -158.203125 C 44.3125 -156.804688 43.171875 -153.828125 43.171875 -149.265625 L 43.171875 -82.921875 L 95.5625 -82.921875 C 103.8125 -82.921875 109.25 -84.71875 111.875 -88.3125 C 114.507812 -91.914062 115.914062 -95.648438 116.09375 -99.515625 C 116.269531 -100.910156 117.054688 -101.5625 118.453125 -101.46875 C 119.859375 -101.382812 120.5625 -100.644531 120.5625 -99.25 L 120.5625 -60.8125 C 120.5625 -59.582031 119.859375 -58.921875 118.453125 -58.828125 C 117.054688 -58.742188 116.269531 -59.316406 116.09375 -60.546875 C 115.914062 -64.585938 114.507812 -68.359375 111.875 -71.859375 C 109.25 -75.367188 103.8125 -77.125 95.5625 -77.125 L 43.171875 -77.125 L 43.171875 -18.6875 C 43.171875 -14.125 43.957031 -11.050781 45.53125 -9.46875 C 47.113281 -7.894531 49.175781 -6.972656 51.71875 -6.703125 C 54.269531 -6.441406 56.945312 -6.050781 59.75 -5.53125 C 61.15625 -5.351562 61.8125 -4.601562 61.71875 -3.28125 C 61.632812 -1.96875 60.894531 -1.3125 59.5 -1.3125 L 7.640625 -1.3125 C 6.234375 -1.3125 5.53125 -1.96875 5.53125 -3.28125 C 5.53125 -4.601562 6.144531 -5.351562 7.375 -5.53125 C 10.351562 -6.050781 13.070312 -6.441406 15.53125 -6.703125 C 17.988281 -6.972656 20.003906 -7.894531 21.578125 -9.46875 C 23.160156 -11.050781 23.953125 -14.125 23.953125 -18.6875 L 23.953125 -148.734375 C 23.953125 -153.472656 23.160156 -156.628906 21.578125 -158.203125 C 20.003906 -159.785156 17.988281 -160.664062 15.53125 -160.84375 C 13.070312 -161.019531 10.351562 -161.375 7.375 -161.90625 C 6.144531 -162.25 5.53125 -163.078125 5.53125 -164.390625 C 5.53125 -165.710938 6.234375 -166.375 7.640625 -166.375 L 135.578125 -166.375 C 136.804688 -166.375 137.421875 -165.9375 137.421875 -165.0625 Z M 137.421875 -165.0625 "/></g></g></g></svg>